<svg width="146" height="96" viewBox="0 0 146 96" fill="none" xmlns="http://www.w3.org/2000/svg">
<line x1="1.31134e-07" y1="94.3864" x2="146" y2="94.3864" stroke="#D87428" stroke-width="3"/>
<path d="M10.9658 64.402L15.7139 77.8082L20.4365 64.402H25.4385V82.8864H21.6172V77.8336L21.998 69.1119L17.0088 82.8864H14.3936L9.41699 69.1246L9.79785 77.8336V82.8864H5.98926V64.402H10.9658ZM32.3955 82.8864H28.7139V69.15H32.3955V82.8864ZM28.498 65.5953C28.498 65.0452 28.68 64.5924 29.0439 64.2369C29.4163 63.8815 29.9199 63.7037 30.5547 63.7037C31.181 63.7037 31.6803 63.8815 32.0527 64.2369C32.4251 64.5924 32.6113 65.0452 32.6113 65.5953C32.6113 66.1539 32.4209 66.611 32.04 66.9664C31.6676 67.3219 31.1725 67.4996 30.5547 67.4996C29.9368 67.4996 29.4375 67.3219 29.0566 66.9664C28.6842 66.611 28.498 66.1539 28.498 65.5953ZM38.8066 69.15L38.9209 70.7369C39.9027 69.5097 41.2188 68.8961 42.8691 68.8961C44.3249 68.8961 45.4082 69.3235 46.1191 70.1783C46.8301 71.0332 47.194 72.3112 47.2109 74.0123V82.8864H43.542V74.1012C43.542 73.3226 43.3727 72.7597 43.0342 72.4127C42.6956 72.0573 42.1328 71.8795 41.3457 71.8795C40.3132 71.8795 39.5387 72.3196 39.0225 73.1998V82.8864H35.3535V69.15H38.8066ZM53.584 70.6481C54.5573 69.4801 55.7803 68.8961 57.2529 68.8961C60.2321 68.8961 61.7428 70.6269 61.7852 74.0885V82.8864H58.1162V74.1901C58.1162 73.403 57.9469 72.8232 57.6084 72.4508C57.2699 72.0699 56.707 71.8795 55.9199 71.8795C54.8451 71.8795 54.0664 72.2942 53.584 73.1237V82.8864H49.915V63.3864H53.584V70.6481ZM72.5127 82.8864C72.3434 82.5563 72.2207 82.1458 72.1445 81.6549C71.2559 82.6451 70.1006 83.1403 68.6787 83.1403C67.333 83.1403 66.2158 82.7509 65.3271 81.9723C64.4469 81.1936 64.0068 80.2119 64.0068 79.027C64.0068 77.5712 64.5443 76.4541 65.6191 75.6754C66.7025 74.8968 68.264 74.5032 70.3037 74.4948H71.9922V73.7076C71.9922 73.0729 71.8271 72.5651 71.4971 72.1842C71.1755 71.8033 70.6634 71.6129 69.9609 71.6129C69.3431 71.6129 68.8564 71.761 68.501 72.0573C68.154 72.3535 67.9805 72.7597 67.9805 73.276H64.3115C64.3115 72.4804 64.557 71.7441 65.0479 71.067C65.5387 70.3899 66.2327 69.861 67.1299 69.4801C68.027 69.0908 69.0342 68.8961 70.1514 68.8961C71.8441 68.8961 73.1855 69.3235 74.1758 70.1783C75.1745 71.0247 75.6738 72.2181 75.6738 73.7584V79.7125C75.6823 81.0159 75.8643 82.0019 76.2197 82.6705V82.8864H72.5127ZM69.4785 80.3346C70.0202 80.3346 70.5195 80.2161 70.9766 79.9791C71.4336 79.7337 71.7721 79.4078 71.9922 79.0016V76.6403H70.6211C68.7845 76.6403 67.807 77.275 67.6885 78.5446L67.6758 78.7604C67.6758 79.2174 67.8366 79.594 68.1582 79.8903C68.4798 80.1865 68.9199 80.3346 69.4785 80.3346ZM89.0166 79.8268H97.1035V82.8864H85.208V64.402H89.0166V79.8268ZM102.931 82.8864H99.249V69.15H102.931V82.8864ZM99.0332 65.5953C99.0332 65.0452 99.2152 64.5924 99.5791 64.2369C99.9515 63.8815 100.455 63.7037 101.09 63.7037C101.716 63.7037 102.215 63.8815 102.588 64.2369C102.96 64.5924 103.146 65.0452 103.146 65.5953C103.146 66.1539 102.956 66.611 102.575 66.9664C102.203 67.3219 101.708 67.4996 101.09 67.4996C100.472 67.4996 99.9727 67.3219 99.5918 66.9664C99.2194 66.611 99.0332 66.1539 99.0332 65.5953ZM113.404 79.0905C113.404 78.6419 113.18 78.2906 112.731 78.0367C112.291 77.7744 111.58 77.5416 110.599 77.3385C107.332 76.653 105.698 75.2649 105.698 73.1744C105.698 71.9557 106.202 70.9401 107.209 70.1276C108.225 69.3066 109.549 68.8961 111.183 68.8961C112.926 68.8961 114.318 69.3066 115.359 70.1276C116.409 70.9485 116.934 72.0149 116.934 73.3268H113.265C113.265 72.802 113.095 72.3704 112.757 72.0319C112.418 71.6849 111.889 71.5114 111.17 71.5114C110.552 71.5114 110.074 71.651 109.735 71.9303C109.397 72.2096 109.228 72.5651 109.228 72.9967C109.228 73.403 109.418 73.733 109.799 73.9869C110.188 74.2324 110.84 74.4482 111.754 74.6344C112.668 74.8121 113.438 75.0153 114.064 75.2438C116.003 75.9547 116.972 77.1862 116.972 78.9381C116.972 80.1907 116.434 81.2063 115.359 81.985C114.285 82.7552 112.896 83.1403 111.195 83.1403C110.044 83.1403 109.02 82.9371 108.123 82.5309C107.234 82.1162 106.536 81.5533 106.028 80.8424C105.521 80.123 105.267 79.3486 105.267 78.5192H108.745C108.779 79.1709 109.02 79.6702 109.469 80.0172C109.917 80.3642 110.518 80.5377 111.271 80.5377C111.974 80.5377 112.503 80.4065 112.858 80.1442C113.222 79.8733 113.404 79.5221 113.404 79.0905ZM123.738 65.7731V69.15H126.087V71.8414H123.738V78.6969C123.738 79.2047 123.836 79.5686 124.03 79.7887C124.225 80.0087 124.597 80.1188 125.147 80.1188C125.554 80.1188 125.913 80.0892 126.227 80.0299V82.8102C125.507 83.0302 124.767 83.1403 124.005 83.1403C121.432 83.1403 120.12 81.8411 120.069 79.2428V71.8414H118.063V69.15H120.069V65.7731H123.738ZM136.091 82.8864C135.922 82.5563 135.799 82.1458 135.723 81.6549C134.834 82.6451 133.679 83.1403 132.257 83.1403C130.911 83.1403 129.794 82.7509 128.905 81.9723C128.025 81.1936 127.585 80.2119 127.585 79.027C127.585 77.5712 128.122 76.4541 129.197 75.6754C130.281 74.8968 131.842 74.5032 133.882 74.4948H135.57V73.7076C135.57 73.0729 135.405 72.5651 135.075 72.1842C134.754 71.8033 134.242 71.6129 133.539 71.6129C132.921 71.6129 132.435 71.761 132.079 72.0573C131.732 72.3535 131.559 72.7597 131.559 73.276H127.89C127.89 72.4804 128.135 71.7441 128.626 71.067C129.117 70.3899 129.811 69.861 130.708 69.4801C131.605 69.0908 132.612 68.8961 133.729 68.8961C135.422 68.8961 136.764 69.3235 137.754 70.1783C138.753 71.0247 139.252 72.2181 139.252 73.7584V79.7125C139.26 81.0159 139.442 82.0019 139.798 82.6705V82.8864H136.091ZM133.057 80.3346C133.598 80.3346 134.098 80.2161 134.555 79.9791C135.012 79.7337 135.35 79.4078 135.57 79.0016V76.6403H134.199C132.363 76.6403 131.385 77.275 131.267 78.5446L131.254 78.7604C131.254 79.2174 131.415 79.594 131.736 79.8903C132.058 80.1865 132.498 80.3346 133.057 80.3346Z" fill="#DDD8CB"/>
<line x1="-1.31134e-07" y1="53.3864" x2="146" y2="53.3863" stroke="#D87428" stroke-width="3"/>
<path d="M88 5.38635H78.595C77.65 2.77635 75.175 0.886353 72.25 0.886353C69.325 0.886353 66.85 2.77635 65.905 5.38635H56.5C54.025 5.38635 52 7.41135 52 9.88635V41.3864C52 43.8614 54.025 45.8864 56.5 45.8864H88C90.475 45.8864 92.5 43.8614 92.5 41.3864V9.88635C92.5 7.41135 90.475 5.38635 88 5.38635ZM72.25 5.38635C73.4875 5.38635 74.5 6.39885 74.5 7.63635C74.5 8.87385 73.4875 9.88635 72.25 9.88635C71.0125 9.88635 70 8.87385 70 7.63635C70 6.39885 71.0125 5.38635 72.25 5.38635ZM61 14.3864H83.5V9.88635H88V41.3864H56.5V9.88635H61V14.3864ZM72.25 36.8864V32.3864H83.5V36.8864H72.25ZM72.25 23.3864V18.8864H83.5V23.3864H72.25ZM63.25 25.6364V18.8864H61V16.6364H65.5V25.6364H63.25ZM66.0625 30.1364C66.985 30.1364 67.75 30.9014 67.75 31.8239C67.75 32.2739 67.57 32.7014 67.2775 32.9939L63.52 36.8864H67.75V39.1364H61V37.0664L65.5 32.3864H61V30.1364H66.0625Z" fill="#D87428"/>
</svg>
